<svg width="396" height="157" viewBox="0 0 396 157" fill="none" xmlns="http://www.w3.org/2000/svg">
<path d="M1.02051 2.01172L395.332 2.83962L395.326 115.993C395.324 138.083 377.418 155.99 355.328 155.991L40.7836 156.009C18.6585 156.01 0.734879 138.05 0.781333 115.925L1.02051 2.01172Z" fill="#A3530A" fill-opacity="0.7"/>
<path d="M128.822 98.376C132.662 95.592 134.582 91.4 134.582 85.8V62.664L130.166 61.608V59.4H144.902V61.608L140.486 62.664V85.8C140.486 89.096 139.446 92.072 137.366 94.728C135.318 97.416 133.03 99.304 130.502 100.392L128.822 98.376ZM146.711 87.048C146.711 81.512 151.623 78.744 161.447 78.744V77.064C161.447 74.28 161.047 72.52 160.247 71.784C159.479 71.016 158.263 70.632 156.599 70.632L150.983 75.432C150.215 74.952 149.559 74.28 149.015 73.416C148.503 72.52 148.231 71.576 148.199 70.584C149.543 69.848 151.015 69.288 152.615 68.904C154.215 68.488 155.799 68.28 157.367 68.28C163.927 68.28 167.207 71.032 167.207 76.536V89.88H170.951V91.464C170.215 92.168 169.399 92.712 168.503 93.096C167.607 93.512 166.727 93.72 165.863 93.72C163.975 93.72 162.583 92.904 161.687 91.272C159.543 92.904 157.127 93.72 154.439 93.72C152.327 93.72 150.503 93.16 148.967 92.04C147.463 90.92 146.711 89.256 146.711 87.048ZM152.759 86.856C152.759 88.04 153.143 88.92 153.911 89.496C154.711 90.072 155.719 90.36 156.935 90.36C158.695 90.36 160.199 89.816 161.447 88.728V81.192C158.567 81.192 156.391 81.72 154.919 82.776C153.479 83.8 152.759 85.16 152.759 86.856ZM173.244 93V90.936L177.324 89.976V72.888H173.244V70.824L180.924 69H183.036V71.16C185.5 69.24 188.028 68.28 190.62 68.28C193.916 68.28 196.252 69.496 197.628 71.928C200.444 69.496 203.308 68.28 206.22 68.28C208.684 68.28 210.62 68.984 212.028 70.392C213.468 71.8 214.188 73.608 214.188 75.816V89.976L218.268 90.936V93H205.356V90.936L208.476 89.976V76.44C208.476 74.936 208.108 73.784 207.372 72.984C206.668 72.184 205.66 71.784 204.348 71.784C202.46 71.784 200.492 72.52 198.444 73.992C198.572 74.76 198.636 75.368 198.636 75.816V89.976L201.756 90.936V93H189.756V90.936L192.876 89.976V76.44C192.876 74.936 192.508 73.784 191.772 72.984C191.068 72.184 190.06 71.784 188.748 71.784C186.956 71.784 185.052 72.456 183.036 73.8V89.976L186.156 90.936V93H173.244ZM220.875 80.712C220.875 77.192 221.883 74.248 223.899 71.88C225.915 69.48 228.699 68.28 232.251 68.28C234.107 68.28 235.723 68.632 237.099 69.336C238.507 70.008 239.611 70.952 240.411 72.168C241.243 73.384 241.851 74.744 242.235 76.248C242.619 77.752 242.811 79.384 242.811 81.144H226.587C226.811 83.768 227.691 86.008 229.227 87.864C230.763 89.688 232.859 90.6 235.515 90.6C237.211 90.6 239.051 90.232 241.035 89.496L241.851 91.752C238.875 93.064 236.043 93.72 233.355 93.72C229.483 93.72 226.427 92.456 224.187 89.928C221.979 87.4 220.875 84.328 220.875 80.712ZM226.587 78.792L236.859 78.024C236.763 76.104 236.315 74.44 235.515 73.032C234.715 71.624 233.579 70.92 232.107 70.92C230.507 70.92 229.195 71.672 228.171 73.176C227.179 74.68 226.651 76.552 226.587 78.792ZM246.946 92.616V85.752H249.154L250.978 90.792C252.098 90.984 253.346 91.08 254.722 91.08C256.77 91.08 258.21 90.824 259.042 90.312C259.906 89.768 260.338 88.856 260.338 87.576C260.338 86.584 259.874 85.768 258.946 85.128C258.018 84.456 256.418 83.672 254.146 82.776C252.002 81.88 250.338 80.824 249.154 79.608C247.97 78.36 247.378 76.792 247.378 74.904C247.378 72.76 248.274 71.128 250.066 70.008C251.89 68.856 254.258 68.28 257.17 68.28C259.698 68.28 261.986 68.584 264.034 69.192V75.72H262.018L260.434 71.208C259.506 70.952 258.418 70.824 257.17 70.824C255.442 70.824 254.226 71.096 253.522 71.64C252.85 72.152 252.514 72.936 252.514 73.992C252.514 74.6 252.738 75.144 253.186 75.624C253.634 76.104 254.13 76.504 254.674 76.824C255.25 77.112 256.162 77.528 257.41 78.072C260.322 79.288 262.402 80.52 263.65 81.768C264.93 82.984 265.57 84.568 265.57 86.52C265.57 88.856 264.626 90.648 262.738 91.896C260.85 93.112 258.386 93.72 255.346 93.72C252.338 93.72 249.538 93.352 246.946 92.616Z" fill="#FFFAFA"/>
</svg>
