<svg width="394" height="156" viewBox="0 0 394 156" fill="none" xmlns="http://www.w3.org/2000/svg">
<path d="M1.05762 1.01221L393.527 1.83624L393.52 114.991C393.518 137.08 375.612 154.987 353.523 154.988L40.821 155.009C18.6958 155.011 0.771989 137.05 0.818444 114.925L1.05762 1.01221Z" fill="#A3530A" fill-opacity="0.7"/>
<path d="M135.126 98.376C138.966 95.592 140.886 91.4 140.886 85.8V62.664L136.47 61.608V59.4H151.206V61.608L146.79 62.664V85.8C146.79 89.096 145.75 92.072 143.67 94.728C141.622 97.416 139.334 99.304 136.806 100.392L135.126 98.376ZM153.016 87.048C153.016 81.512 157.928 78.744 167.752 78.744V77.064C167.752 74.28 167.352 72.52 166.552 71.784C165.784 71.016 164.568 70.632 162.904 70.632L157.288 75.432C156.52 74.952 155.864 74.28 155.32 73.416C154.808 72.52 154.536 71.576 154.504 70.584C155.848 69.848 157.32 69.288 158.92 68.904C160.52 68.488 162.104 68.28 163.672 68.28C170.232 68.28 173.512 71.032 173.512 76.536V89.88H177.256V91.464C176.52 92.168 175.704 92.712 174.808 93.096C173.912 93.512 173.032 93.72 172.168 93.72C170.28 93.72 168.888 92.904 167.992 91.272C165.848 92.904 163.432 93.72 160.744 93.72C158.632 93.72 156.808 93.16 155.272 92.04C153.768 90.92 153.016 89.256 153.016 87.048ZM159.064 86.856C159.064 88.04 159.448 88.92 160.216 89.496C161.016 90.072 162.024 90.36 163.24 90.36C165 90.36 166.504 89.816 167.752 88.728V81.192C164.872 81.192 162.696 81.72 161.224 82.776C159.784 83.8 159.064 85.16 159.064 86.856ZM180.172 92.616V85.752H182.38L184.204 90.792C185.324 90.984 186.572 91.08 187.948 91.08C189.996 91.08 191.436 90.824 192.268 90.312C193.132 89.768 193.564 88.856 193.564 87.576C193.564 86.584 193.1 85.768 192.172 85.128C191.244 84.456 189.644 83.672 187.372 82.776C185.228 81.88 183.564 80.824 182.38 79.608C181.196 78.36 180.604 76.792 180.604 74.904C180.604 72.76 181.5 71.128 183.292 70.008C185.116 68.856 187.484 68.28 190.396 68.28C192.924 68.28 195.212 68.584 197.26 69.192V75.72H195.244L193.66 71.208C192.732 70.952 191.644 70.824 190.396 70.824C188.668 70.824 187.452 71.096 186.748 71.64C186.076 72.152 185.74 72.936 185.74 73.992C185.74 74.6 185.964 75.144 186.412 75.624C186.86 76.104 187.356 76.504 187.9 76.824C188.476 77.112 189.388 77.528 190.636 78.072C193.548 79.288 195.628 80.52 196.876 81.768C198.156 82.984 198.796 84.568 198.796 86.52C198.796 88.856 197.852 90.648 195.964 91.896C194.076 93.112 191.612 93.72 188.572 93.72C185.564 93.72 182.764 93.352 180.172 92.616ZM215.045 68.28C218.565 68.28 221.477 69.48 223.781 71.88C226.085 74.248 227.237 77.272 227.237 80.952C227.237 84.664 226.085 87.72 223.781 90.12C221.477 92.52 218.565 93.72 215.045 93.72C211.525 93.72 208.597 92.52 206.261 90.12C203.957 87.72 202.805 84.664 202.805 80.952C202.805 77.272 203.957 74.248 206.261 71.88C208.597 69.48 211.525 68.28 215.045 68.28ZM215.045 70.92C213.061 70.92 211.525 71.832 210.437 73.656C209.381 75.48 208.853 77.912 208.853 80.952C208.853 83.992 209.381 86.44 210.437 88.296C211.525 90.152 213.061 91.08 215.045 91.08C217.029 91.08 218.549 90.152 219.605 88.296C220.693 86.408 221.237 83.96 221.237 80.952C221.237 77.912 220.693 75.48 219.605 73.656C218.549 71.832 217.029 70.92 215.045 70.92ZM230.97 93V90.936L235.05 89.976V72.888H230.97V70.824L238.65 69H240.81V71.304C243.242 69.288 245.818 68.28 248.538 68.28C251.034 68.28 253.002 68.984 254.442 70.392C255.882 71.8 256.602 73.608 256.602 75.816V89.976L260.682 90.936V93H247.77V90.936L250.89 89.976V76.68C250.89 73.416 249.498 71.784 246.714 71.784C244.826 71.784 242.858 72.52 240.81 73.992V89.976L243.93 90.936V93H230.97Z" fill="#FFFAFA"/>
</svg>
