<svg width="415" height="156" viewBox="0 0 415 156" fill="none" xmlns="http://www.w3.org/2000/svg">
<path d="M0.328125 0L405.184 0.84077L405.18 114.558C405.18 136.649 387.271 154.557 365.18 154.558L40.0845 154.568C17.9601 154.569 0.0381343 136.61 0.085099 114.485L0.328125 0Z" fill="#A3530A" fill-opacity="0.7"/>
<path d="M102.098 94.4175V92.2095L106.658 91.1055L108.194 64.0335L103.97 63.0255L104.018 60.8175H114.29L125.09 85.8735L135.986 60.8175H145.874V63.0255L141.554 64.0335L143.186 91.1535L147.794 92.2095V94.4175H133.202V92.2095L137.426 91.2015L136.13 68.4495L124.754 94.6575H122.642L111.122 68.4015L109.922 91.2015L114.194 92.2095V94.4175H102.098ZM150.065 82.1295C150.065 78.6095 151.073 75.6655 153.089 73.2975C155.105 70.8975 157.889 69.6975 161.441 69.6975C163.297 69.6975 164.913 70.0495 166.289 70.7535C167.697 71.4255 168.801 72.3695 169.601 73.5855C170.433 74.8015 171.041 76.1615 171.425 77.6655C171.809 79.1695 172.001 80.8015 172.001 82.5615H155.777C156.001 85.1855 156.881 87.4255 158.417 89.2815C159.953 91.1055 162.049 92.0175 164.705 92.0175C166.401 92.0175 168.241 91.6495 170.225 90.9135L171.041 93.1695C168.065 94.4815 165.233 95.1375 162.545 95.1375C158.673 95.1375 155.617 93.8735 153.377 91.3455C151.169 88.8175 150.065 85.7455 150.065 82.1295ZM155.777 80.2095L166.049 79.4415C165.953 77.5215 165.505 75.8575 164.705 74.4495C163.905 73.0415 162.769 72.3375 161.297 72.3375C159.697 72.3375 158.385 73.0895 157.361 74.5935C156.369 76.0975 155.841 77.9695 155.777 80.2095ZM175.511 94.4175V92.3535L179.591 91.3935V74.3055H175.511V72.2415L183.191 70.4175H185.303V73.3935C187.895 70.9295 190.903 69.6975 194.327 69.6975C194.519 70.3055 194.615 70.9775 194.615 71.7135C194.615 72.8975 194.471 73.9535 194.183 74.8815L188.087 74.3535C187.127 74.8015 186.199 75.3455 185.303 75.9855V91.3935L190.343 92.3535V94.4175H175.511ZM197.081 82.1295C197.081 78.6095 198.089 75.6655 200.105 73.2975C202.121 70.8975 204.905 69.6975 208.457 69.6975C210.313 69.6975 211.929 70.0495 213.305 70.7535C214.713 71.4255 215.817 72.3695 216.617 73.5855C217.449 74.8015 218.057 76.1615 218.441 77.6655C218.825 79.1695 219.017 80.8015 219.017 82.5615H202.793C203.017 85.1855 203.897 87.4255 205.433 89.2815C206.969 91.1055 209.065 92.0175 211.721 92.0175C213.417 92.0175 215.257 91.6495 217.241 90.9135L218.057 93.1695C215.081 94.4815 212.249 95.1375 209.561 95.1375C205.689 95.1375 202.633 93.8735 200.393 91.3455C198.185 88.8175 197.081 85.7455 197.081 82.1295ZM202.793 80.2095L213.065 79.4415C212.969 77.5215 212.521 75.8575 211.721 74.4495C210.921 73.0415 209.785 72.3375 208.313 72.3375C206.713 72.3375 205.401 73.0895 204.377 74.5935C203.385 76.0975 202.857 77.9695 202.793 80.2095ZM222.863 83.2815C222.863 78.9615 224.191 75.6175 226.847 73.2495C229.503 70.8815 232.719 69.6975 236.495 69.6975C237.839 69.6975 239.007 69.8415 239.999 70.1295V59.9055H235.919V57.8415L243.599 56.0175H245.759V91.2975H249.503V92.8815L248.735 93.5055C248.415 93.7615 247.807 94.0975 246.911 94.5135C246.047 94.9295 245.199 95.1375 244.367 95.1375C244.015 95.1375 243.663 95.0895 243.311 94.9935C242.991 94.9295 242.703 94.8335 242.447 94.7055C242.191 94.5775 241.951 94.4335 241.727 94.2735C241.503 94.0815 241.311 93.9055 241.151 93.7455C241.023 93.5855 240.879 93.4095 240.719 93.2175C240.591 93.0255 240.495 92.8655 240.431 92.7375C240.367 92.6095 240.287 92.4655 240.191 92.3055L240.095 92.1135C238.175 94.1295 235.807 95.1375 232.991 95.1375C230.207 95.1375 227.823 94.1295 225.839 92.1135C223.855 90.0655 222.863 87.1215 222.863 83.2815ZM228.767 83.0895C228.767 85.8415 229.375 87.9375 230.591 89.3775C231.839 90.8175 233.311 91.5375 235.007 91.5375C236.799 91.5375 238.463 90.9455 239.999 89.7615V72.8175C239.007 72.4975 237.983 72.3375 236.927 72.3375C234.495 72.3375 232.527 73.2495 231.023 75.0735C229.519 76.8975 228.767 79.5695 228.767 83.0895ZM262.76 63.1215C262.76 64.1135 262.408 64.9615 261.704 65.6655C261.032 66.3375 260.2 66.6735 259.208 66.6735C258.216 66.6735 257.368 66.3375 256.664 65.6655C255.992 64.9615 255.656 64.1135 255.656 63.1215C255.656 62.1295 255.992 61.2975 256.664 60.6255C257.368 59.9215 258.216 59.5695 259.208 59.5695C260.2 59.5695 261.032 59.9055 261.704 60.5775C262.408 61.2495 262.76 62.0975 262.76 63.1215ZM252.152 94.4175V92.3535L256.232 91.3935V74.3055H252.152V72.2415L259.832 70.4175H261.944V91.3935L266.024 92.3535V94.4175H252.152ZM268.698 73.2975V71.8575L275.514 66.0495H276.954V70.7055L283.866 70.4175V73.2975H276.954V87.9855C276.954 90.8335 278.09 92.2575 280.362 92.2575C281.322 92.2575 282.474 91.9695 283.818 91.3935L284.634 93.6015C282.65 94.6255 280.602 95.1375 278.49 95.1375C276.186 95.1375 274.394 94.5935 273.114 93.5055C271.866 92.3855 271.242 90.4655 271.242 87.7455V73.2975H268.698ZM286.026 94.4175V92.3535L290.106 91.3935V59.9055H286.026V57.8415L293.706 56.0175H295.866V72.7215C298.298 70.7055 300.874 69.6975 303.594 69.6975C306.09 69.6975 308.058 70.4015 309.498 71.8095C310.938 73.2175 311.658 75.0255 311.658 77.2335V91.3935L315.738 92.3535V94.4175H302.826V92.3535L305.946 91.3935V78.0975C305.946 74.8335 304.554 73.2015 301.77 73.2015C299.882 73.2015 297.914 73.9375 295.866 75.4095V91.3935L298.986 92.3535V94.4175H286.026Z" fill="#FFFAFA"/>
</svg>
