<svg width="409" height="156" viewBox="0 0 409 156" fill="none" xmlns="http://www.w3.org/2000/svg">
<path d="M0.363281 0.0126953L399.327 0.853466L399.323 114.573C399.323 136.663 381.415 154.57 359.325 154.571L40.1256 154.581C18.0008 154.582 0.0775127 136.621 0.123795 114.497L0.363281 0.0126953Z" fill="#A3530A" fill-opacity="0.7"/>
<path d="M147.518 94.4302V92.2222L151.934 91.1662V64.0942L147.518 63.0382V60.8302H161.102C162.83 60.8302 164.414 60.9742 165.854 61.2622C167.294 61.5182 168.686 61.9822 170.03 62.6542C171.406 63.2942 172.478 64.2702 173.246 65.5822C174.046 66.8622 174.446 68.4142 174.446 70.2382C174.446 74.4942 172.238 77.3742 167.822 78.8782L174.494 91.2142L178.718 92.2702V94.4302H169.982L162.062 79.5982H157.838V91.1662L162.254 92.2222V94.4302H147.518ZM157.838 76.7182H160.622C162.958 76.7182 164.83 76.1422 166.238 74.9902C167.678 73.8382 168.398 72.2222 168.398 70.1422C168.398 68.0942 167.694 66.5422 166.286 65.4862C164.878 64.3982 162.99 63.8542 160.622 63.8542H157.838V76.7182ZM178.313 72.4942V70.4302H191.417V72.4942L187.721 73.2142L194.537 88.4302L200.297 73.4542L196.457 72.4942V70.4302H207.065V72.4942L203.273 73.5022L189.689 108.782C188.249 108.782 187.161 108.574 186.425 108.158C185.721 107.742 185.177 107.23 184.793 106.622L191.657 95.7262L181.577 73.4062L178.313 72.4942ZM208.774 88.4782C208.774 82.9422 213.686 80.1742 223.51 80.1742V78.4942C223.51 75.7102 223.11 73.9502 222.31 73.2142C221.542 72.4462 220.326 72.0622 218.662 72.0622L213.046 76.8622C212.278 76.3822 211.622 75.7102 211.078 74.8462C210.566 73.9502 210.294 73.0062 210.262 72.0142C211.606 71.2782 213.078 70.7182 214.678 70.3342C216.278 69.9182 217.862 69.7102 219.43 69.7102C225.99 69.7102 229.27 72.4622 229.27 77.9662V91.3102H233.014V92.8942C232.278 93.5982 231.462 94.1422 230.566 94.5262C229.67 94.9422 228.79 95.1502 227.926 95.1502C226.038 95.1502 224.646 94.3342 223.75 92.7022C221.606 94.3342 219.19 95.1502 216.502 95.1502C214.39 95.1502 212.566 94.5902 211.03 93.4702C209.526 92.3502 208.774 90.6862 208.774 88.4782ZM214.822 88.2862C214.822 89.4702 215.206 90.3502 215.974 90.9262C216.774 91.5022 217.782 91.7902 218.998 91.7902C220.758 91.7902 222.262 91.2462 223.51 90.1582V82.6222C220.63 82.6222 218.454 83.1502 216.982 84.2062C215.542 85.2302 214.822 86.5902 214.822 88.2862ZM235.306 94.4302V92.3662L239.386 91.4062V74.3182H235.306V72.2542L242.986 70.4302H245.146V72.7342C247.578 70.7182 250.154 69.7102 252.874 69.7102C255.37 69.7102 257.338 70.4142 258.778 71.8222C260.218 73.2302 260.938 75.0382 260.938 77.2462V91.4062L265.018 92.3662V94.4302H252.106V92.3662L255.226 91.4062V78.1102C255.226 74.8462 253.834 73.2142 251.05 73.2142C249.162 73.2142 247.194 73.9502 245.146 75.4222V91.4062L248.266 92.3662V94.4302H235.306Z" fill="#FFFAFA"/>
</svg>
